<svg width="191" height="30" viewBox="0 0 191 30" fill="none" xmlns="http://www.w3.org/2000/svg">
<g clip-path="url(#clip0_1930_2)">
<g clip-path="url(#clip1_1930_2)">
<path d="M0.00132743 20.4483H7.12035C7.12035 21.1341 7.42212 21.724 8.02565 22.2178C8.65665 22.6842 9.41102 22.9722 10.2889 23.0819C11.1942 23.1917 12.0858 23.2054 12.9637 23.1231C13.8416 23.0134 14.5823 22.739 15.1858 22.3001C15.8168 21.8337 16.1323 21.2851 16.1323 20.6541C16.1323 20.1603 16.0088 19.7625 15.7619 19.4607C15.515 19.1315 15.1035 18.8846 14.5274 18.72C13.9787 18.528 13.4438 18.4045 12.9225 18.3496C12.4287 18.2673 11.7429 18.1988 10.865 18.1439C7.51813 17.897 4.9531 17.1014 3.16991 15.7572C1.38672 14.413 0.467698 12.2594 0.412832 9.29656C0.385398 6.93726 1.12611 4.94832 2.63495 3.32974C4.1438 1.71116 5.98186 0.723547 8.1491 0.366911C10.3163 -0.0171603 12.4836 -0.0171603 14.6509 0.366911C16.8181 0.723547 18.6562 1.71116 20.165 3.32974C21.6738 4.94832 22.4145 6.93726 22.3871 9.29656H15.3916C15.3916 8.11694 14.7332 7.29389 13.4164 6.82752C12.1269 6.36115 10.8101 6.37487 9.46591 6.86867C8.1491 7.33504 7.46327 8.11694 7.4084 9.21426C7.3261 10.2019 7.66902 10.8877 8.43715 11.2718C9.20527 11.6559 10.385 11.9439 11.9761 12.1359C13.046 12.2731 13.8553 12.3828 14.404 12.4651C14.9801 12.52 15.7345 12.6572 16.6672 12.8766C17.6274 13.0687 18.3544 13.2881 18.8482 13.5351C19.3694 13.7545 19.9593 14.0838 20.6177 14.5227C21.2761 14.9342 21.7699 15.4142 22.0991 15.9629C22.4283 16.5116 22.7026 17.1837 22.9221 17.9793C23.169 18.7749 23.2924 19.6802 23.2924 20.6952C23.2924 22.3412 22.8535 23.8227 21.9756 25.1395C21.1252 26.4563 20.0142 27.4576 18.6425 28.1434C17.2707 28.8293 15.7482 29.3368 14.0748 29.666C12.4013 29.9952 10.7278 29.9952 9.05441 29.666C7.4084 29.3642 5.89955 28.8704 4.52787 28.1846C3.15619 27.4713 2.04513 26.4425 1.19469 25.0983C0.371681 23.7541 -0.0261061 22.204 0.00132743 20.4483ZM17.9429 6.66292H18.4779C17.8743 5.56558 16.9553 4.70142 15.7208 4.07044C14.5137 3.41204 13.2243 3.08283 11.8526 3.08283C10.4809 3.08283 9.16412 3.28859 7.9022 3.70009C6.66769 4.08416 5.63893 4.78372 4.81593 5.79876C4.02035 6.78637 3.63628 7.95226 3.66371 9.29656C3.69114 10.4762 3.8969 11.4638 4.28097 12.2594C4.69247 13.055 5.29601 13.6585 6.09159 14.07C6.88716 14.4541 7.66902 14.7422 8.43715 14.9342C9.23275 15.0988 10.234 15.2222 11.4411 15.3045C14.0748 15.524 15.8031 15.7983 16.6261 16.1275C18.4641 16.8682 19.3969 18.3771 19.4243 20.6541C19.4243 22.1629 18.7933 23.4249 17.5314 24.4399C16.2969 25.4275 14.8566 26.031 13.2106 26.2505C11.592 26.47 9.93231 26.3191 8.2314 25.7979C6.55796 25.2492 5.33716 24.3439 4.56902 23.0819H4.07522C4.65132 24.2067 5.57035 25.0983 6.8323 25.7567C8.12169 26.4151 9.49332 26.7581 10.9473 26.7855C12.4013 26.8129 13.8004 26.6346 15.1447 26.2505C16.5164 25.839 17.6411 25.1395 18.519 24.1519C19.4243 23.1368 19.877 21.9709 19.877 20.6541C19.877 19.6665 19.6986 18.8297 19.342 18.1439C19.0128 17.4306 18.6287 16.882 18.1898 16.4979C17.7509 16.1138 17.0925 15.7983 16.2146 15.5514C15.3367 15.3045 14.6097 15.1537 14.0336 15.0988C13.4575 15.0165 12.6208 14.9342 11.5234 14.8519C10.3163 14.7422 9.34246 14.6187 8.60175 14.4815C7.86105 14.3443 7.10663 14.0974 6.33849 13.7408C5.59778 13.3567 5.04911 12.8081 4.69247 12.0948C4.33584 11.3541 4.15752 10.4213 4.15752 9.29656C4.15752 8.06205 4.52787 6.97841 5.26858 6.04567C6.00929 5.11292 6.95575 4.46824 8.10795 4.1116C9.26016 3.72753 10.4673 3.5355 11.7292 3.5355C12.9911 3.50806 14.1845 3.78239 15.3093 4.3585C16.4615 4.90717 17.3394 5.67531 17.9429 6.66292Z" fill="#FF9900"/>
<path d="M35.2518 0.449219V22.6293H45.704V29.2545H27.8447V0.449219H35.2518ZM42.9058 26.1271V25.7567H31.7952V3.24744H31.3425V26.1271H42.9058Z" fill="#FF9900"/>
<path d="M73.6725 12.8767L85.1533 0.366943H87.787V29.2545H80.2564V16.4156L74.1252 22.8351H73.3022L67.2119 16.4156V29.2545H59.6814V0.366943H62.3973L73.6725 12.8767ZM83.8365 26.4152H84.248V7.32136H83.6719L73.6725 17.8559L63.7964 7.32136H63.2615V26.4152H63.673V7.85633L73.6725 18.4731L83.8365 7.85633V26.4152Z" fill="#0E6399"/>
<path d="M97.4171 3.49434V26.2094H109.515V25.7979H97.8697V14.5638H108.322V14.1523H97.8697V3.90585H109.145V3.49434H97.4171ZM111.943 0.449219V7.03329H101.285V11.1072H111.079V17.6501H101.285V22.7116H112.314V29.2545H93.9604V0.449219H111.943Z" fill="#0E6399"/>
<path d="M117.469 0.449219H128.333C131.323 0.449219 133.915 1.16249 136.11 2.58904C138.305 4.01559 139.896 5.79878 140.884 7.9386C141.871 10.051 142.365 12.3554 142.365 14.8519C142.365 17.3483 141.871 19.6665 140.884 21.8063C139.896 23.9187 138.305 25.6882 136.11 27.1147C133.915 28.5412 131.323 29.2545 128.333 29.2545H117.469V0.449219ZM121.049 3.5355V26.1682H128.25C129.979 26.1682 131.542 25.8528 132.942 25.2218C134.341 24.5634 135.466 23.6992 136.316 22.6293C137.166 21.5594 137.824 20.3523 138.291 19.0081C138.758 17.6638 138.991 16.2784 138.991 14.8519C138.991 13.4254 138.758 12.0399 138.291 10.6957C137.824 9.35146 137.166 8.14436 136.316 7.07444C135.466 6.00453 134.341 5.15408 132.942 4.52311C131.542 3.86471 129.979 3.5355 128.25 3.5355H121.049ZM128.25 25.7156H121.419V3.94701H128.25C130.445 3.94701 132.351 4.48196 133.97 5.55187C135.589 6.62178 136.755 7.96601 137.468 9.58462C138.209 11.2032 138.579 12.959 138.579 14.8519C138.579 16.7174 138.209 18.4594 137.468 20.078C136.755 21.6966 135.589 23.0408 133.97 24.1107C132.351 25.1806 130.445 25.7156 128.25 25.7156ZM124.835 7.15674V22.547H128.333C129.594 22.547 130.719 22.2727 131.707 21.724C132.695 21.1479 133.435 20.4072 133.929 19.5019C134.45 18.5966 134.834 17.5952 135.081 16.4979C135.328 15.4006 135.328 14.3032 135.081 13.2059C134.834 12.1085 134.45 11.1072 133.929 10.2019C133.435 9.29657 132.695 8.5696 131.707 8.02091C130.719 7.44479 129.594 7.15674 128.333 7.15674H124.835Z" fill="#0E6399"/>
<path d="M152.694 25.839H148.332V26.2505H157.385V25.839H153.105V3.90585H157.056V3.49434H148.702V3.90585H152.694V25.839ZM156.521 22.7939H160.183V29.2545H145.575V22.7939H149.237V6.86869H145.863V0.449219H159.895V6.86869H156.521V22.7939Z" fill="#0E6399"/>
<path d="M168.581 21.9297L176.317 5.18151H176.358L184.177 21.9297H168.581ZM183.724 29.2545L182.037 25.6333H170.68L168.992 29.2545H161.791V28.1846L174.753 0.0788574H177.922L190.926 28.1846V29.2545H183.724ZM186.769 26.4563L176.441 4.27619H176.194L165.947 26.4563H166.482L168.416 22.3824H184.341L186.234 26.4563H186.769ZM179.362 19.0081L176.317 12.3828L173.354 19.0081H179.362Z" fill="#0E6399"/>
</g>
</g>
<defs>
<clipPath id="clip0_1930_2">
<rect width="191" height="30" fill="white"/>
</clipPath>
<clipPath id="clip1_1930_2">
<rect width="191" height="49.6911" fill="white"/>
</clipPath>
</defs>
</svg>
