<svg width="249" height="82" viewBox="0 0 249 82" fill="none" xmlns="http://www.w3.org/2000/svg">
<g clip-path="url(#clip0_1930_2)">
<g opacity="0.8">
<path d="M55.6055 69.1933C55.6055 69.0439 55.582 68.9121 55.5352 68.7978C55.4912 68.6806 55.4121 68.5752 55.2979 68.4814C55.1865 68.3877 55.0312 68.2983 54.832 68.2134C54.6357 68.1284 54.3867 68.042 54.085 67.9541C53.7686 67.8603 53.4829 67.7563 53.228 67.6421C52.9731 67.5249 52.7549 67.3916 52.5732 67.2422C52.3916 67.0928 52.2524 66.9214 52.1558 66.728C52.0591 66.5346 52.0107 66.3135 52.0107 66.0644C52.0107 65.8154 52.062 65.5854 52.1646 65.3745C52.2671 65.1636 52.4136 64.9804 52.604 64.8252C52.7974 64.667 53.0273 64.5439 53.2939 64.456C53.5605 64.3681 53.8579 64.3242 54.186 64.3242C54.6665 64.3242 55.0737 64.4165 55.4077 64.6011C55.7446 64.7827 56.001 65.0215 56.1768 65.3174C56.3525 65.6103 56.4404 65.9238 56.4404 66.2578H55.5967C55.5967 66.0176 55.5454 65.8052 55.4429 65.6206C55.3403 65.4331 55.1851 65.2866 54.9771 65.1811C54.769 65.0727 54.5054 65.0185 54.186 65.0185C53.8843 65.0185 53.6353 65.0639 53.439 65.1548C53.2427 65.2456 53.0962 65.3686 52.9995 65.5239C52.9058 65.6792 52.8589 65.8564 52.8589 66.0556C52.8589 66.1904 52.8867 66.3135 52.9424 66.4248C53.001 66.5332 53.0903 66.6343 53.2104 66.728C53.3335 66.8218 53.4888 66.9082 53.6763 66.9873C53.8667 67.0664 54.0938 67.1426 54.3574 67.2158C54.7207 67.3183 55.0342 67.4326 55.2979 67.5586C55.5615 67.6845 55.7783 67.8266 55.9482 67.9848C56.1211 68.1401 56.2485 68.3174 56.3306 68.5166C56.4155 68.7129 56.458 68.9355 56.458 69.1845C56.458 69.4453 56.4053 69.6811 56.2998 69.8921C56.1943 70.103 56.0435 70.2832 55.8472 70.4326C55.6509 70.582 55.415 70.6977 55.1396 70.7798C54.8672 70.8589 54.5625 70.8984 54.2256 70.8984C53.9297 70.8984 53.6382 70.8574 53.3511 70.7754C53.0669 70.6933 52.8076 70.5703 52.5732 70.4062C52.3418 70.2422 52.1558 70.04 52.0151 69.7998C51.8774 69.5566 51.8086 69.2754 51.8086 68.956H52.6523C52.6523 69.1758 52.6948 69.3647 52.7798 69.5229C52.8647 69.6782 52.9805 69.8071 53.127 69.9096C53.2764 70.0122 53.4448 70.0884 53.6323 70.1382C53.8228 70.185 54.0205 70.2085 54.2256 70.2085C54.5215 70.2085 54.772 70.1675 54.9771 70.0854C55.1821 70.0034 55.3374 69.8862 55.4429 69.7339C55.5513 69.5815 55.6055 69.4013 55.6055 69.1933Z" fill="#9A9A9A"/>
<path d="M65.1653 67.4092V67.8135C65.1653 68.2939 65.1053 68.7246 64.9852 69.1054C64.865 69.4863 64.6922 69.81 64.4666 70.0766C64.241 70.3432 63.97 70.5469 63.6536 70.6875C63.3401 70.8281 62.9886 70.8984 62.5989 70.8984C62.221 70.8984 61.8738 70.8281 61.5574 70.6875C61.2439 70.5469 60.9715 70.3432 60.74 70.0766C60.5115 69.81 60.3343 69.4863 60.2083 69.1054C60.0823 68.7246 60.0193 68.2939 60.0193 67.8135V67.4092C60.0193 66.9287 60.0809 66.4995 60.2039 66.1216C60.3299 65.7407 60.5071 65.417 60.7356 65.1504C60.9642 64.8808 61.2352 64.6758 61.5486 64.5351C61.865 64.3945 62.2122 64.3242 62.5901 64.3242C62.9798 64.3242 63.3313 64.3945 63.6448 64.5351C63.9612 64.6758 64.2322 64.8808 64.4578 65.1504C64.6863 65.417 64.8606 65.7407 64.9808 66.1216C65.1038 66.4995 65.1653 66.9287 65.1653 67.4092ZM64.326 67.8135V67.4004C64.326 67.0195 64.2864 66.6826 64.2073 66.3896C64.1312 66.0967 64.0184 65.8506 63.8689 65.6513C63.7195 65.4521 63.5364 65.3012 63.3196 65.1987C63.1058 65.0962 62.8626 65.0449 62.5901 65.0449C62.3265 65.0449 62.0877 65.0962 61.8738 65.1987C61.6629 65.3012 61.4812 65.4521 61.3289 65.6513C61.1795 65.8506 61.0638 66.0967 60.9817 66.3896C60.8997 66.6826 60.8587 67.0195 60.8587 67.4004V67.8135C60.8587 68.1972 60.8997 68.5371 60.9817 68.833C61.0638 69.126 61.181 69.3735 61.3333 69.5757C61.4886 69.7749 61.6717 69.9258 61.8826 70.0283C62.0965 70.1308 62.3353 70.1821 62.5989 70.1821C62.8743 70.1821 63.1189 70.1308 63.3328 70.0283C63.5467 69.9258 63.7269 69.7749 63.8733 69.5757C64.0228 69.3735 64.1355 69.126 64.2117 68.833C64.2879 68.5371 64.326 68.1972 64.326 67.8135Z" fill="#9A9A9A"/>
<path d="M72.7959 64.4121H73.6396V68.7407C73.6396 69.2212 73.5327 69.6211 73.3188 69.9404C73.105 70.2597 72.8208 70.5 72.4663 70.6611C72.1147 70.8193 71.7324 70.8984 71.3193 70.8984C70.8857 70.8984 70.4932 70.8193 70.1416 70.6611C69.793 70.5 69.5161 70.2597 69.311 69.9404C69.1089 69.6211 69.0078 69.2212 69.0078 68.7407V64.4121H69.8472V68.7407C69.8472 69.0747 69.9087 69.3501 70.0317 69.5669C70.1548 69.7837 70.3262 69.9448 70.5459 70.0503C70.7686 70.1557 71.0264 70.2085 71.3193 70.2085C71.6152 70.2085 71.873 70.1557 72.0928 70.0503C72.3154 69.9448 72.4883 69.7837 72.6113 69.5669C72.7344 69.3501 72.7959 69.0747 72.7959 68.7407V64.4121Z" fill="#9A9A9A"/>
<path d="M82.5933 64.4121V70.8105H81.7407L78.5195 65.8755V70.8105H77.6714V64.4121H78.5195L81.7539 69.3603V64.4121H82.5933Z" fill="#9A9A9A"/>
<path d="M88.5275 70.8105H87.1916L87.2004 70.1206H88.5275C88.9846 70.1206 89.3654 70.0254 89.6701 69.8349C89.9748 69.6416 90.2033 69.372 90.3557 69.0263C90.5109 68.6777 90.5886 68.2705 90.5886 67.8047V67.4136C90.5886 67.0473 90.5446 66.7221 90.4567 66.438C90.3688 66.1509 90.2399 65.9092 90.07 65.7129C89.9001 65.5136 89.6921 65.3628 89.446 65.2602C89.2028 65.1577 88.923 65.1064 88.6066 65.1064H87.1652V64.4121H88.6066C89.0256 64.4121 89.4079 64.4824 89.7536 64.623C90.0993 64.7607 90.3967 64.9614 90.6457 65.2251C90.8977 65.4858 91.091 65.8022 91.2258 66.1743C91.3605 66.5434 91.4279 66.9595 91.4279 67.4223V67.8047C91.4279 68.2676 91.3605 68.685 91.2258 69.0571C91.091 69.4262 90.8962 69.7412 90.6413 70.0019C90.3894 70.2627 90.0847 70.4634 89.7272 70.604C89.3728 70.7417 88.9729 70.8105 88.5275 70.8105ZM87.6442 64.4121V70.8105H86.7961V64.4121H87.6442Z" fill="#9A9A9A"/>
<path d="M101.394 67.2597L102.352 66.5786C102.536 66.4526 102.679 66.3266 102.778 66.2007C102.881 66.0718 102.932 65.896 102.932 65.6733C102.932 65.5005 102.865 65.3437 102.73 65.2031C102.595 65.0595 102.405 64.9878 102.158 64.9878C101.989 64.9878 101.845 65.0273 101.728 65.1064C101.611 65.1855 101.523 65.291 101.464 65.4228C101.406 65.5517 101.376 65.6938 101.376 65.8491C101.376 65.9809 101.408 66.1172 101.473 66.2578C101.537 66.3984 101.627 66.5449 101.741 66.6972C101.855 66.8496 101.986 67.0107 102.132 67.1806L105.16 70.8105H104.184L101.701 67.8398C101.482 67.582 101.285 67.3462 101.113 67.1323C100.94 66.9155 100.804 66.706 100.704 66.5039C100.607 66.3017 100.559 66.0923 100.559 65.8755C100.559 65.5415 100.625 65.2602 100.757 65.0317C100.891 64.8003 101.079 64.6245 101.319 64.5044C101.559 64.3843 101.841 64.3242 102.163 64.3242C102.476 64.3242 102.746 64.3872 102.971 64.5132C103.2 64.6362 103.376 64.8003 103.499 65.0053C103.622 65.2075 103.683 65.4302 103.683 65.6733C103.683 65.8784 103.647 66.063 103.574 66.227C103.5 66.3882 103.398 66.5361 103.266 66.6709C103.137 66.8056 102.986 66.9375 102.813 67.0664L101.543 68.0112C101.332 68.1665 101.179 68.3144 101.082 68.4551C100.985 68.5957 100.922 68.7202 100.893 68.8286C100.867 68.937 100.853 69.0234 100.853 69.0879C100.853 69.2959 100.899 69.4863 100.99 69.6592C101.08 69.832 101.218 69.9712 101.403 70.0766C101.59 70.1792 101.825 70.2304 102.106 70.2304C102.352 70.2304 102.591 70.1748 102.822 70.0635C103.056 69.9492 103.266 69.7881 103.45 69.5801C103.635 69.3691 103.782 69.1186 103.89 68.8286C104.001 68.5356 104.057 68.2119 104.057 67.8574H104.786C104.786 68.1474 104.759 68.4214 104.703 68.6792C104.647 68.937 104.561 69.1772 104.444 69.3999C104.329 69.6196 104.183 69.8203 104.004 70.0019C103.978 70.0283 103.957 70.0591 103.943 70.0942C103.928 70.1294 103.908 70.1601 103.881 70.1865C103.661 70.4238 103.39 70.6025 103.068 70.7226C102.749 70.8398 102.428 70.8984 102.106 70.8984C101.681 70.8984 101.313 70.8208 101.003 70.6655C100.695 70.5102 100.458 70.2964 100.291 70.0239C100.124 69.7514 100.04 69.4394 100.04 69.0879C100.04 68.8183 100.097 68.581 100.212 68.376C100.329 68.1709 100.489 67.979 100.691 67.8003C100.896 67.6216 101.13 67.4414 101.394 67.2597Z" fill="#9A9A9A"/>
<path d="M117.446 70.1206V70.8105H114.247V70.1206H117.446ZM114.414 64.4121V70.8105H113.566V64.4121H114.414Z" fill="#9A9A9A"/>
<path d="M122.027 64.4121V70.8105H121.179V64.4121H122.027Z" fill="#9A9A9A"/>
<path d="M130.998 67.6245V69.9668C130.919 70.084 130.793 70.2158 130.62 70.3623C130.447 70.5058 130.208 70.6318 129.904 70.7402C129.602 70.8457 129.212 70.8984 128.735 70.8984C128.345 70.8984 127.986 70.831 127.658 70.6963C127.333 70.5586 127.05 70.3594 126.81 70.0986C126.573 69.8349 126.388 69.5156 126.256 69.1406C126.127 68.7627 126.063 68.3349 126.063 67.8574V67.3608C126.063 66.8833 126.119 66.457 126.23 66.082C126.344 65.707 126.511 65.3891 126.731 65.1284C126.951 64.8647 127.22 64.6655 127.54 64.5307C127.859 64.393 128.225 64.3242 128.638 64.3242C129.127 64.3242 129.536 64.4092 129.864 64.5791C130.195 64.7461 130.453 64.9775 130.638 65.2734C130.825 65.5693 130.945 65.9062 130.998 66.2842H130.15C130.112 66.0527 130.036 65.8418 129.921 65.6513C129.81 65.4609 129.65 65.3086 129.442 65.1943C129.234 65.0771 128.966 65.0185 128.638 65.0185C128.342 65.0185 128.086 65.0727 127.869 65.1811C127.652 65.2895 127.474 65.4448 127.333 65.647C127.192 65.8491 127.087 66.0937 127.017 66.3808C126.949 66.6679 126.916 66.9917 126.916 67.352V67.8574C126.916 68.2265 126.958 68.5561 127.043 68.8462C127.131 69.1362 127.255 69.3838 127.417 69.5888C127.578 69.791 127.77 69.9448 127.992 70.0503C128.218 70.1557 128.467 70.2085 128.739 70.2085C129.041 70.2085 129.286 70.1836 129.473 70.1338C129.661 70.081 129.807 70.0195 129.913 69.9492C130.018 69.876 130.099 69.8071 130.154 69.7427V68.31H128.673V67.6245H130.998Z" fill="#9A9A9A"/>
<path d="M139.283 67.1631V67.853H135.821V67.1631H139.283ZM135.952 64.4121V70.8105H135.104V64.4121H135.952ZM140.022 64.4121V70.8105H139.178V64.4121H140.022Z" fill="#9A9A9A"/>
<path d="M146.462 64.4121V70.8105H145.627V64.4121H146.462ZM148.518 64.4121V65.1064H143.574V64.4121H148.518Z" fill="#9A9A9A"/>
<path d="M157.192 64.4121H158.014L160.11 69.6284L162.202 64.4121H163.028L160.426 70.8105H159.785L157.192 64.4121ZM156.924 64.4121H157.649L157.768 68.3144V70.8105H156.924V64.4121ZM162.567 64.4121H163.292V70.8105H162.448V68.3144L162.567 64.4121Z" fill="#9A9A9A"/>
<path d="M171.546 70.1206V70.8105H168.158V70.1206H171.546ZM168.33 64.4121V70.8105H167.481V64.4121H168.33ZM171.098 67.1631V67.853H168.158V67.1631H171.098ZM171.502 64.4121V65.1064H168.158V64.4121H171.502Z" fill="#9A9A9A"/>
<path d="M177.028 70.8105H175.692L175.701 70.1206H177.028C177.485 70.1206 177.866 70.0254 178.171 69.8349C178.475 69.6416 178.704 69.372 178.856 69.0263C179.012 68.6777 179.089 68.2705 179.089 67.8047V67.4136C179.089 67.0473 179.045 66.7221 178.957 66.438C178.869 66.1509 178.741 65.9092 178.571 65.7129C178.401 65.5136 178.193 65.3628 177.947 65.2602C177.703 65.1577 177.424 65.1064 177.107 65.1064H175.666V64.4121H177.107C177.526 64.4121 177.908 64.4824 178.254 64.623C178.6 64.7607 178.897 64.9614 179.146 65.2251C179.398 65.4858 179.592 65.8022 179.726 66.1743C179.861 66.5434 179.929 66.9595 179.929 67.4223V67.8047C179.929 68.2676 179.861 68.685 179.726 69.0571C179.592 69.4262 179.397 69.7412 179.142 70.0019C178.89 70.2627 178.585 70.4634 178.228 70.604C177.873 70.7417 177.473 70.8105 177.028 70.8105ZM176.145 64.4121V70.8105H175.297V64.4121H176.145Z" fill="#9A9A9A"/>
<path d="M184.813 64.4121V70.8105H183.964V64.4121H184.813Z" fill="#9A9A9A"/>
<path d="M191.503 64.979L189.385 70.8105H188.519L190.958 64.4121H191.516L191.503 64.979ZM193.278 70.8105L191.156 64.979L191.142 64.4121H191.701L194.148 70.8105H193.278ZM193.168 68.4419V69.1362H189.574V68.4419H193.168Z" fill="#9A9A9A"/>
</g>
<path d="M0.00170967 33.3368H9.17071C9.17071 34.2201 9.55938 34.9798 10.3367 35.6158C11.1494 36.2165 12.121 36.5875 13.2517 36.7288C14.4177 36.8701 15.566 36.8878 16.6967 36.7818C17.8274 36.6405 18.7814 36.2871 19.5587 35.7218C20.3714 35.1211 20.7777 34.4145 20.7777 33.6018C20.7777 32.9658 20.6187 32.4535 20.3007 32.0648C19.9827 31.6408 19.4527 31.3228 18.7107 31.1108C18.004 30.8635 17.315 30.7045 16.6437 30.6338C16.0077 30.5278 15.1244 30.4395 13.9937 30.3688C9.68304 30.0508 6.37938 29.0261 4.08271 27.2948C1.78604 25.5635 0.602376 22.7898 0.53171 18.9738C0.496376 15.9351 1.45038 13.3735 3.39371 11.2888C5.33704 9.20414 7.70438 7.93214 10.4957 7.47281C13.287 6.97814 16.0784 6.97814 18.8697 7.47281C21.661 7.93214 24.0284 9.20414 25.9717 11.2888C27.915 13.3735 28.869 15.9351 28.8337 18.9738H19.8237C19.8237 17.4545 18.9757 16.3945 17.2797 15.7938C15.619 15.1931 13.923 15.2108 12.1917 15.8468C10.4957 16.4475 9.61238 17.4545 9.54171 18.8678C9.43571 20.1398 9.87738 21.0231 10.8667 21.5178C11.856 22.0125 13.3754 22.3835 15.4247 22.6308C16.8027 22.8075 17.845 22.9488 18.5517 23.0548C19.2937 23.1255 20.2654 23.3021 21.4667 23.5848C22.7034 23.8321 23.6397 24.1148 24.2757 24.4328C24.947 24.7155 25.7067 25.1395 26.5547 25.7048C27.4027 26.2348 28.0387 26.8531 28.4627 27.5598C28.8867 28.2665 29.24 29.1321 29.5227 30.1568C29.8407 31.1815 29.9997 32.3475 29.9997 33.6548C29.9997 35.7748 29.4344 37.6828 28.3037 39.3788C27.2084 41.0748 25.7774 42.3645 24.0107 43.2478C22.244 44.1311 20.283 44.7848 18.1277 45.2088C15.9724 45.6328 13.817 45.6328 11.6617 45.2088C9.54171 44.8201 7.59838 44.1841 5.83171 43.3008C4.06504 42.3821 2.63404 41.0571 1.53871 39.3258C0.47871 37.5945 -0.0336236 35.5981 0.00170967 33.3368ZM23.1097 15.5818H23.7987C23.0214 14.1685 21.8377 13.0555 20.2477 12.2428C18.693 11.3948 17.0324 10.9708 15.2657 10.9708C13.499 10.9708 11.803 11.2358 10.1777 11.7658C8.58771 12.2605 7.26271 13.1615 6.20271 14.4688C5.17804 15.7408 4.68338 17.2424 4.71871 18.9738C4.75404 20.4931 5.01904 21.7651 5.51371 22.7898C6.04371 23.8145 6.82104 24.5918 7.84571 25.1218C8.87038 25.6165 9.87738 25.9875 10.8667 26.2348C11.8914 26.4468 13.181 26.6058 14.7357 26.7118C18.1277 26.9945 20.3537 27.3478 21.4137 27.7718C23.781 28.7258 24.9824 30.6691 25.0177 33.6018C25.0177 35.5451 24.205 37.1705 22.5797 38.4778C20.9897 39.7498 19.1347 40.5271 17.0147 40.8098C14.93 41.0925 12.7924 40.8981 10.6017 40.2268C8.44638 39.5201 6.87404 38.3541 5.88471 36.7288H5.24871C5.99071 38.1775 7.17438 39.3258 8.79971 40.1738C10.4604 41.0218 12.227 41.4635 14.0997 41.4988C15.9724 41.5341 17.7744 41.3045 19.5057 40.8098C21.2724 40.2798 22.721 39.3788 23.8517 38.1068C25.0177 36.7995 25.6007 35.2978 25.6007 33.6018C25.6007 32.3298 25.371 31.2521 24.9117 30.3688C24.4877 29.4501 23.993 28.7435 23.4277 28.2488C22.8624 27.7541 22.0144 27.3478 20.8837 27.0298C19.753 26.7118 18.8167 26.5175 18.0747 26.4468C17.3327 26.3408 16.255 26.2348 14.8417 26.1288C13.287 25.9875 12.0327 25.8285 11.0787 25.6518C10.1247 25.4751 9.15304 25.1571 8.16371 24.6978C7.20971 24.2031 6.50304 23.4965 6.04371 22.5778C5.58438 21.6238 5.35471 20.4224 5.35471 18.9738C5.35471 17.3838 5.83171 15.9881 6.78571 14.7868C7.73971 13.5855 8.95871 12.7551 10.4427 12.2958C11.9267 11.8011 13.4814 11.5538 15.1067 11.5538C16.732 11.5185 18.269 11.8718 19.7177 12.6138C21.2017 13.3205 22.3324 14.3098 23.1097 15.5818Z" fill="#FF9900"/>
<path d="M45.4028 7.57861V36.1456H58.8648V44.6786H35.8628V7.57861H45.4028ZM55.2608 40.6506V40.1736H40.9508V11.1826H40.3678V40.6506H55.2608Z" fill="#FF9900"/>
<path d="M94.8872 23.5847L109.674 7.47266H113.066V44.6787H103.367V28.1427L95.4702 36.4107H94.4102L86.5662 28.1427V44.6787H76.8672V7.47266H80.3652L94.8872 23.5847ZM107.978 41.0217H108.508V16.4297H107.766L94.8872 29.9977L82.1672 16.4297H81.4782V41.0217H82.0082V17.1187L94.8872 30.7927L107.978 17.1187V41.0217Z" fill="#0E6399"/>
<path d="M125.469 11.5006V40.7566H141.051V40.2266H126.052V25.7576H139.514V25.2276H126.052V12.0306H140.574V11.5006H125.469ZM144.178 7.57861V16.0586H130.451V21.3056H143.065V29.7326H130.451V36.2516H144.655V44.6786H121.017V7.57861H144.178Z" fill="#0E6399"/>
<path d="M151.295 7.57861H165.287C169.138 7.57861 172.477 8.49728 175.304 10.3346C178.131 12.1719 180.18 14.4686 181.452 17.2246C182.724 19.9453 183.36 22.9133 183.36 26.1286C183.36 29.3439 182.724 32.3296 181.452 35.0856C180.18 37.8063 178.131 40.0853 175.304 41.9226C172.477 43.7599 169.138 44.6786 165.287 44.6786H151.295V7.57861ZM155.906 11.5536V40.7036H165.181C167.407 40.7036 169.421 40.2973 171.223 39.4846C173.025 38.6366 174.474 37.5236 175.569 36.1456C176.664 34.7676 177.512 33.2129 178.113 31.4816C178.714 29.7503 179.014 27.9659 179.014 26.1286C179.014 24.2913 178.714 22.5069 178.113 20.7756C177.512 19.0443 176.664 17.4896 175.569 16.1116C174.474 14.7336 173.025 13.6383 171.223 12.8256C169.421 11.9776 167.407 11.5536 165.181 11.5536H155.906ZM165.181 40.1206H156.383V12.0836H165.181C168.008 12.0836 170.463 12.7726 172.548 14.1506C174.633 15.5286 176.134 17.2599 177.053 19.3446C178.007 21.4293 178.484 23.6906 178.484 26.1286C178.484 28.5313 178.007 30.7749 177.053 32.8596C176.134 34.9443 174.633 36.6756 172.548 38.0536C170.463 39.4316 168.008 40.1206 165.181 40.1206ZM160.782 16.2176V36.0396H165.287C166.912 36.0396 168.361 35.6863 169.633 34.9796C170.905 34.2376 171.859 33.2836 172.495 32.1176C173.166 30.9516 173.661 29.6619 173.979 28.2486C174.297 26.8353 174.297 25.4219 173.979 24.0086C173.661 22.5953 173.166 21.3056 172.495 20.1396C171.859 18.9736 170.905 18.0373 169.633 17.3306C168.361 16.5886 166.912 16.2176 165.287 16.2176H160.782Z" fill="#0E6399"/>
<path d="M196.663 40.2796H191.045V40.8096H202.705V40.2796H197.193V12.0306H202.281V11.5006H191.522V12.0306H196.663V40.2796ZM201.592 36.3576H206.309V44.6786H187.494V36.3576H192.211V15.8466H187.865V7.57861H205.938V15.8466H201.592V36.3576Z" fill="#0E6399"/>
<path d="M217.125 35.2448L227.089 13.6738H227.142L237.212 35.2448H217.125ZM236.629 44.6788L234.456 40.0148H219.828L217.655 44.6788H208.38V43.3008L225.075 7.10181H229.156L245.904 43.3008V44.6788H236.629ZM240.551 41.0748L227.248 12.5078H226.93L213.733 41.0748H214.422L216.913 35.8278H237.424L239.862 41.0748H240.551ZM231.011 31.4818L227.089 22.9488L223.273 31.4818H231.011Z" fill="#0E6399"/>
<path d="M0 55.6361L245.902 55.636" stroke="#9A9A9A"/>
</g>
<defs>
<clipPath id="clip0_1930_2">
<rect width="246" height="64" fill="white" transform="translate(0 7)"/>
</clipPath>
</defs>
</svg>
