<svg width="49" height="48" viewBox="0 0 49 48" fill="none" xmlns="http://www.w3.org/2000/svg">
<mask id="mask0_70_1458" style="mask-type:alpha" maskUnits="userSpaceOnUse" x="0" y="0" width="49" height="48">
<rect x="0.664062" width="48" height="48" fill="#D9D9D9"/>
</mask>
<g mask="url(#mask0_70_1458)">
<path d="M24.2025 42.0004V40.0004H37.4333C37.7923 40.0004 38.0871 39.8851 38.3179 39.6543C38.5487 39.4235 38.6641 39.1287 38.6641 38.7697V24.1081C38.6641 22.1748 38.2974 20.3581 37.5641 18.6581C36.8307 16.9581 35.8307 15.4748 34.5641 14.2081C33.2974 12.9415 31.8141 11.9415 30.1141 11.2081C28.4141 10.4748 26.5974 10.1081 24.6641 10.1081C22.7307 10.1081 20.9141 10.4748 19.2141 11.2081C17.5141 11.9415 16.0307 12.9415 14.7641 14.2081C13.4974 15.4748 12.4974 16.9581 11.7641 18.6581C11.0307 20.3581 10.6641 22.1748 10.6641 24.1081V36.1543H9.66406C8.82046 36.1543 8.10956 35.8652 7.53136 35.287C6.95316 34.7088 6.66406 33.9979 6.66406 33.1543V29.1543C6.66406 28.5928 6.8474 28.0652 7.21406 27.5716C7.58073 27.078 8.06406 26.6479 8.66406 26.2812L8.69866 23.6696C8.7679 21.4927 9.23521 19.4594 10.1006 17.5696C10.966 15.6799 12.1237 14.0389 13.5737 12.6466C15.0237 11.2543 16.6993 10.1575 18.6006 9.3562C20.5019 8.55493 22.523 8.1543 24.6641 8.1543C26.8128 8.1543 28.8378 8.54851 30.7391 9.33695C32.6404 10.1254 34.3141 11.2177 35.7602 12.6139C37.2064 14.0101 38.3621 15.6511 39.2275 17.5369C40.0929 19.4228 40.5602 21.4632 40.6295 23.6581L40.6641 26.2196C41.2641 26.5196 41.7474 26.9036 42.1141 27.3716C42.4807 27.8395 42.6641 28.3338 42.6641 28.8543V33.4543C42.6641 33.9825 42.4807 34.4786 42.1141 34.9427C41.7474 35.4068 41.2641 35.7889 40.6641 36.0889V38.7697C40.6641 39.6646 40.3493 40.4267 39.7199 41.0562C39.0904 41.6857 38.3282 42.0004 37.4333 42.0004H24.2025ZM19.4333 28.3081C19.0205 28.3081 18.6609 28.1549 18.3545 27.8485C18.048 27.5421 17.8948 27.1825 17.8948 26.7697C17.8948 26.3569 18.048 25.9972 18.3545 25.6908C18.6609 25.3844 19.0205 25.2312 19.4333 25.2312C19.8461 25.2312 20.2057 25.3844 20.5121 25.6908C20.8185 25.9972 20.9718 26.3569 20.9718 26.7697C20.9718 27.1825 20.8185 27.5421 20.5121 27.8485C20.2057 28.1549 19.8461 28.3081 19.4333 28.3081ZM29.8948 28.3081C29.482 28.3081 29.1224 28.1549 28.816 27.8485C28.5096 27.5421 28.3564 27.1825 28.3564 26.7697C28.3564 26.3569 28.5096 25.9972 28.816 25.6908C29.1224 25.3844 29.482 25.2312 29.8948 25.2312C30.3076 25.2312 30.6673 25.3844 30.9737 25.6908C31.2801 25.9972 31.4333 26.3569 31.4333 26.7697C31.4333 27.1825 31.2801 27.5421 30.9737 27.8485C30.6673 28.1549 30.3076 28.3081 29.8948 28.3081ZM14.0987 24.9389C13.991 23.203 14.2339 21.6248 14.8275 20.2043C15.4211 18.7838 16.2288 17.5793 17.2506 16.5908C18.2724 15.6024 19.4436 14.8402 20.7641 14.3043C22.0846 13.7684 23.4179 13.5004 24.7641 13.5004C27.4384 13.5004 29.7557 14.3498 31.716 16.0485C33.6762 17.7472 34.8641 19.8633 35.2795 22.3966C32.5051 22.3633 29.9987 21.6177 27.7602 20.16C25.5217 18.7023 23.8294 16.8107 22.6833 14.485C22.2012 16.8773 21.198 18.9934 19.6737 20.8331C18.1493 22.6729 16.291 24.0415 14.0987 24.9389Z" fill="#0E6399"/>
</g>
</svg>
