<svg width="48" height="48" viewBox="0 0 48 48" fill="none" xmlns="http://www.w3.org/2000/svg">
<mask id="mask0_70_1450" style="mask-type:alpha" maskUnits="userSpaceOnUse" x="0" y="0" width="48" height="48">
<rect width="48" height="48" fill="#D9D9D9"/>
</mask>
<g mask="url(#mask0_70_1450)">
<path d="M30 39.8461L18 35.6461L10.0846 38.7077C9.57177 38.8974 9.09613 38.8416 8.6577 38.5404C8.21923 38.2391 8 37.8154 8 37.2692V12.8077C8 12.4512 8.08653 12.1256 8.2596 11.8307C8.43267 11.5358 8.68458 11.3307 9.01535 11.2153L18 8.15381L30 12.3538L37.9154 9.29226C38.4282 9.10253 38.9039 9.13906 39.3423 9.40186C39.7808 9.66469 40 10.0564 40 10.5769V35.3461C40 35.7282 39.8942 36.0602 39.6827 36.3423C39.4712 36.6243 39.1872 36.823 38.8308 36.9384L30 39.8461ZM29 37.4077V14.0077L19 10.5154V33.9154L29 37.4077ZM31 37.4077L38 35.1V11.4L31 14.0077V37.4077ZM10 36.6L17 33.9154V10.5154L10 12.9V36.6Z" fill="#0E6399"/>
</g>
</svg>
