<svg width="49" height="48" viewBox="0 0 49 48" fill="none" xmlns="http://www.w3.org/2000/svg">
<mask id="mask0_70_1466" style="mask-type:alpha" maskUnits="userSpaceOnUse" x="0" y="0" width="49" height="48">
<rect x="0.335938" width="48" height="48" fill="#D9D9D9"/>
</mask>
<g mask="url(#mask0_70_1466)">
<path d="M7.56669 40.3847C6.64619 40.3847 5.8776 40.0763 5.26094 39.4597C4.64427 38.843 4.33594 38.0744 4.33594 37.1539V18.8462H6.33594V37.1539C6.33594 37.4616 6.46414 37.7436 6.72054 38C6.97697 38.2564 7.25902 38.3847 7.56669 38.3847H37.3359V40.3847H7.56669ZM13.5667 34.3846C12.6462 34.3846 11.8776 34.0763 11.2609 33.4597C10.6443 32.843 10.3359 32.0744 10.3359 31.1539V12.3846H20.9513V9.23075C20.9513 8.31025 21.2597 7.54167 21.8763 6.925C22.493 6.30833 23.2616 6 24.1821 6H30.4898C31.4103 6 32.1789 6.30833 32.7956 6.925C33.4123 7.54167 33.7206 8.31025 33.7206 9.23075V12.3846H44.3359V31.1539C44.3359 32.0744 44.0276 32.843 43.4109 33.4597C42.7943 34.0763 42.0257 34.3846 41.1052 34.3846H13.5667ZM13.5667 32.3846H41.1052C41.4129 32.3846 41.6949 32.2564 41.9513 32C42.2077 31.7436 42.3359 31.4616 42.3359 31.1539V14.3846H12.3359V31.1539C12.3359 31.4616 12.4642 31.7436 12.7206 32C12.977 32.2564 13.259 32.3846 13.5667 32.3846ZM22.9513 12.3846H31.7205V9.23075C31.7205 8.92305 31.5923 8.641 31.3359 8.3846C31.0795 8.1282 30.7975 8 30.4898 8H24.1821C23.8744 8 23.5923 8.1282 23.3359 8.3846C23.0795 8.641 22.9513 8.92305 22.9513 9.23075V12.3846Z" fill="#0E6399"/>
</g>
</svg>
