<svg version="1.1" xmlns="http://www.w3.org/2000/svg" xmlns:xlink="http://www.w3.org/1999/xlink">

    <symbol viewBox="0 0 12 8" id="nav-sub">
        <path d="M11.3077 2.2L5.65383 7.85382L-2.47137e-07 2.2L1.05383 1.14617L5.65383 5.74617L10.2538 1.14617L11.3077 2.2Z" />
    </symbol>

    <symbol viewBox="0 0 18 24" id="nav-catalogue">
        <path d="M0 17.6346V16.1346H17.5V17.6346H0ZM0 12.75V11.25H17.5V12.75H0ZM0 7.86539V6.36542H17.5V7.86539H0Z" />
    </symbol>

    <symbol viewBox="0 0 16 17" id="catalogue-header-section">
        <path d="M4.26505 12.9359L3.5625 12.2333L7.29583 8.49997L3.5625 4.76664L4.26505 4.06409L7.99838 7.79742L11.7317 4.06409L12.4343 4.76664L8.70093 8.49997L12.4343 12.2333L11.7317 12.9359L7.99838 9.20252L4.26505 12.9359Z" />
    </symbol>

    <symbol viewBox="0 0 16 17" id="catalogue-sort-select">
        <path d="M7.9994 12.3013L4.46094 8.76282L4.93274 8.29102L7.9994 11.3577L11.0661 8.29102L11.5379 8.76282L7.9994 12.3013Z" />
    </symbol>

    <symbol viewBox="0 0 24 24" id="catalogue-sort-active">
        <path d="M9.99941 16.6885L6.71094 13.4L7.39941 12.7115L9.99941 15.3115L16.5994 8.71155L17.2879 9.40002L9.99941 16.6885Z" />
    </symbol>

    <symbol viewBox="0 0 24 24" id="btn-in-cart">
        <path d="M10.0036 16.0442L6.35938 12.4L7.40358 11.3558L10.0036 13.9558L16.6036 7.35583L17.6478 8.40004L10.0036 16.0442Z" />
    </symbol>

    <symbol viewBox="0 0 22 30" id="mobile-menu-link">
        <path d="M0.125 22.0433V20.1683H21.9999V22.0433H0.125ZM0.125 15.9375V14.0626H21.9999V15.9375H0.125ZM0.125 9.83176V7.95679H21.9999V9.83176H0.125Z" fill="black" />
    </symbol>

    <symbol viewBox="0 0 24 25" id="mobile-menu-close">
        <path d="M6.4 19.5L5 18.1L10.6 12.5L5 6.9L6.4 5.5L12 11.1L17.6 5.5L19 6.9L13.4 12.5L19 18.1L17.6 19.5L12 13.9L6.4 19.5Z" />
    </symbol>

    <symbol viewBox="0 0 18 19" id="catalogue-filter-mobile-link">
        <path d="M8.4375 16.0624V11.9374H9.56246V13.4374H15.5625V14.5624H9.56246V16.0624H8.4375ZM2.4375 14.5624V13.4374H6.56246V14.5624H2.4375ZM5.4375 11.5624V10.0624H2.4375V8.93744H5.4375V7.43744H6.56246V11.5624H5.4375ZM8.4375 10.0624V8.93744H15.5625V10.0624H8.4375ZM11.4375 7.0624V2.93744H12.5625V4.43744H15.5625V5.5624H12.5625V7.0624H11.4375ZM2.4375 5.5624V4.43744H9.56246V5.5624H2.4375Z" />
    </symbol>

    <symbol viewBox="0 0 24 25" id="header-contacts-phone">
        <path d="M19.4403 21C17.5557 21 15.6625 20.5618 13.7606 19.6855C11.8586 18.8092 10.1112 17.573 8.51828 15.9769C6.92533 14.3807 5.69071 12.6333 4.81442 10.7346C3.93814 8.83588 3.5 6.94423 3.5 5.05963C3.5 4.75688 3.6 4.50458 3.8 4.30275C4 4.10092 4.25 4 4.55 4H7.8115C8.06407 4 8.28683 4.08238 8.47977 4.24713C8.67272 4.41188 8.79548 4.6154 8.84803 4.8577L9.4211 7.79998C9.46085 8.07306 9.45252 8.30768 9.3961 8.50383C9.3397 8.69998 9.23842 8.86472 9.09225 8.99805L6.78265 11.2461C7.15445 11.9269 7.57913 12.5708 8.0567 13.1779C8.53427 13.7849 9.05125 14.3647 9.60765 14.9173C10.1564 15.466 10.7397 15.9756 11.3577 16.4462C11.9756 16.9167 12.6429 17.3545 13.3596 17.7596L15.6038 15.4962C15.7602 15.3333 15.9497 15.2192 16.1721 15.1539C16.3945 15.0885 16.6256 15.0724 16.8654 15.1058L19.6423 15.6712C19.8948 15.7378 20.1009 15.8667 20.2605 16.0577C20.4201 16.2487 20.5 16.4654 20.5 16.7077V19.95C20.5 20.25 20.399 20.5 20.1972 20.7C19.9954 20.9 19.7431 21 19.4403 21ZM6.07305 9.82693L7.85768 8.11923C7.88973 8.09358 7.91056 8.05832 7.92018 8.01345C7.92979 7.96857 7.92819 7.9269 7.91538 7.88845L7.48075 5.65383C7.46793 5.60254 7.4455 5.56408 7.41345 5.53845C7.3814 5.5128 7.33973 5.49998 7.28845 5.49998H5.14997C5.11152 5.49998 5.07948 5.5128 5.05383 5.53845C5.02818 5.56408 5.01535 5.59613 5.01535 5.6346C5.06663 6.31793 5.17849 7.01217 5.35092 7.7173C5.52337 8.42243 5.76408 9.12564 6.07305 9.82693ZM14.773 18.4692C15.4359 18.7782 16.1272 19.0144 16.8471 19.1779C17.567 19.3413 18.2397 19.4384 18.8654 19.4692C18.9038 19.4692 18.9359 19.4564 18.9615 19.4308C18.9872 19.4051 19 19.373 19 19.3346V17.2308C19 17.1795 18.9872 17.1378 18.9615 17.1057C18.9359 17.0737 18.8974 17.0512 18.8461 17.0384L16.7461 16.6115C16.7077 16.5987 16.674 16.5971 16.6452 16.6067C16.6163 16.6163 16.5859 16.6372 16.5538 16.6692L14.773 18.4692Z" />
    </symbol>

    <symbol viewBox="0 0 30 30" id="slider-prev">
        <path d="M13.4 15L18 19.6L16.6 21L10.6 15L16.6 9L18 10.4L13.4 15Z" />
    </symbol>

    <symbol viewBox="0 0 30 30" id="slider-next">
        <path d="M16.6 15L12 10.4L13.4 9L19.4 15L13.4 21L12 19.6L16.6 15Z" />
    </symbol>

</svg>