<svg version="1.1" xmlns="http://www.w3.org/2000/svg" xmlns:xlink="http://www.w3.org/1999/xlink">

    <symbol viewBox="0 0 12 8" id="nav-sub">
        <path d="M11.3077 2.2L5.65383 7.85382L-2.47137e-07 2.2L1.05383 1.14617L5.65383 5.74617L10.2538 1.14617L11.3077 2.2Z" />
    </symbol>

    <symbol viewBox="0 0 18 24" id="nav-catalogue">
        <path d="M0 17.6346V16.1346H17.5V17.6346H0ZM0 12.75V11.25H17.5V12.75H0ZM0 7.86539V6.36542H17.5V7.86539H0Z" />
    </symbol>

    <symbol viewBox="0 0 16 17" id="catalogue-header-section">
        <path d="M4.26505 12.9359L3.5625 12.2333L7.29583 8.49997L3.5625 4.76664L4.26505 4.06409L7.99838 7.79742L11.7317 4.06409L12.4343 4.76664L8.70093 8.49997L12.4343 12.2333L11.7317 12.9359L7.99838 9.20252L4.26505 12.9359Z" />
    </symbol>

    <symbol viewBox="0 0 16 17" id="catalogue-sort-select">
        <path d="M7.9994 12.3013L4.46094 8.76282L4.93274 8.29102L7.9994 11.3577L11.0661 8.29102L11.5379 8.76282L7.9994 12.3013Z" />
    </symbol>

    <symbol viewBox="0 0 24 24" id="catalogue-sort-active">
        <path d="M9.99941 16.6885L6.71094 13.4L7.39941 12.7115L9.99941 15.3115L16.5994 8.71155L17.2879 9.40002L9.99941 16.6885Z" />
    </symbol>

    <symbol viewBox="0 0 24 24" id="btn-in-cart">
        <path d="M10.0036 16.0442L6.35938 12.4L7.40358 11.3558L10.0036 13.9558L16.6036 7.35583L17.6478 8.40004L10.0036 16.0442Z" />
    </symbol>

    <symbol viewBox="0 0 22 30" id="mobile-menu-link">
        <path d="M0.125 22.0433V20.1683H21.9999V22.0433H0.125ZM0.125 15.9375V14.0626H21.9999V15.9375H0.125ZM0.125 9.83176V7.95679H21.9999V9.83176H0.125Z" fill="black" />
    </symbol>

    <symbol viewBox="0 0 24 25" id="mobile-menu-close">
        <path d="M6.4 19.5L5 18.1L10.6 12.5L5 6.9L6.4 5.5L12 11.1L17.6 5.5L19 6.9L13.4 12.5L19 18.1L17.6 19.5L12 13.9L6.4 19.5Z" />
    </symbol>

    <symbol viewBox="0 0 18 19" id="catalogue-filter-mobile-link">
        <path d="M8.4375 16.0624V11.9374H9.56246V13.4374H15.5625V14.5624H9.56246V16.0624H8.4375ZM2.4375 14.5624V13.4374H6.56246V14.5624H2.4375ZM5.4375 11.5624V10.0624H2.4375V8.93744H5.4375V7.43744H6.56246V11.5624H5.4375ZM8.4375 10.0624V8.93744H15.5625V10.0624H8.4375ZM11.4375 7.0624V2.93744H12.5625V4.43744H15.5625V5.5624H12.5625V7.0624H11.4375ZM2.4375 5.5624V4.43744H9.56246V5.5624H2.4375Z" />
    </symbol>

</svg>