<svg width="100" height="100" viewBox="0 0 100 100" fill="none" xmlns="http://www.w3.org/2000/svg">
<mask id="mask0_502_248" style="mask-type:alpha" maskUnits="userSpaceOnUse" x="0" y="0" width="100" height="100">
<rect width="100" height="100" fill="#D9D9D9"/>
</mask>
<g mask="url(#mask0_502_248)">
<path d="M43.9583 65.4169L69.7917 39.5836L67.7083 37.5002L43.9583 61.2502L32.0833 49.3752L30 51.4586L43.9583 65.4169ZM50.0181 86.2502C45.006 86.2502 40.2931 85.2992 35.8794 83.397C31.4656 81.4948 27.6261 78.9133 24.3611 75.6524C21.0962 72.3915 18.5115 68.557 16.6069 64.1488C14.7023 59.7406 13.75 55.0305 13.75 50.0184C13.75 45.0063 14.7011 40.2934 16.6032 35.8796C18.5055 31.4658 21.087 27.6264 24.3478 24.3615C27.6087 21.0965 31.4433 18.5117 35.8515 16.6071C40.2597 14.7025 44.9698 13.7502 49.9819 13.7502C54.994 13.7502 59.7069 14.7013 64.1206 16.6035C68.5344 18.5057 72.3738 21.0872 75.6388 24.3481C78.9038 27.609 81.4885 31.4435 83.3931 35.8517C85.2977 40.2599 86.25 44.97 86.25 49.9821C86.25 54.9942 85.2989 59.7071 83.3968 64.1209C81.4945 68.5347 78.913 72.3741 75.6522 75.6391C72.3913 78.904 68.5567 81.4888 64.1485 83.3934C59.7403 85.298 55.0302 86.2502 50.0181 86.2502ZM50 83.3336C59.3056 83.3336 67.1875 80.1044 73.6458 73.6461C80.1042 67.1877 83.3333 59.3058 83.3333 50.0002C83.3333 40.6947 80.1042 32.8127 73.6458 26.3544C67.1875 19.8961 59.3056 16.6669 50 16.6669C40.6944 16.6669 32.8125 19.8961 26.3542 26.3544C19.8958 32.8127 16.6667 40.6947 16.6667 50.0002C16.6667 59.3058 19.8958 67.1877 26.3542 73.6461C32.8125 80.1044 40.6944 83.3336 50 83.3336Z" fill="#0A9E4A"/>
</g>
</svg>
