<svg width="50" height="150" viewBox="0 0 50 150" fill="none" xmlns="http://www.w3.org/2000/svg">
<path d="M50 100L-2.15577e-06 150L2.98022e-08 100L50 100Z" fill="#0E6399"/>
<mask id="mask0_1801_8" style="mask-type:alpha" maskUnits="userSpaceOnUse" x="2" y="102" width="24" height="24">
<rect x="2" y="102" width="24" height="24" fill="#D9D9D9"/>
</mask>
<g mask="url(#mask0_1801_8)">
<path d="M21.5422 122.577L15.2615 116.296C14.7615 116.709 14.1865 117.032 13.5365 117.265C12.8865 117.499 12.214 117.615 11.5192 117.615C9.80999 117.615 8.36348 117.024 7.17961 115.84C5.99574 114.656 5.40381 113.21 5.40381 111.502C5.40381 109.793 5.99559 108.346 7.17916 107.162C8.36273 105.977 9.80888 105.385 11.5176 105.385C13.2263 105.385 14.673 105.977 15.8576 107.16C17.0422 108.344 17.6345 109.791 17.6345 111.5C17.6345 112.214 17.5147 112.896 17.2749 113.546C17.0352 114.196 16.7153 114.762 16.3153 115.242L22.5961 121.523L21.5422 122.577ZM11.5192 116.115C12.8076 116.115 13.899 115.668 14.7932 114.774C15.6874 113.88 16.1346 112.788 16.1346 111.5C16.1346 110.212 15.6874 109.12 14.7932 108.226C13.899 107.332 12.8076 106.885 11.5192 106.885C10.2307 106.885 9.13934 107.332 8.24511 108.226C7.35089 109.12 6.90378 110.212 6.90378 111.5C6.90378 112.788 7.35089 113.88 8.24511 114.774C9.13934 115.668 10.2307 116.115 11.5192 116.115ZM10.7692 114.192V112.25H8.82688V110.75H10.7692V108.808H12.2692V110.75H14.2115V112.25H12.2692V114.192H10.7692Z" fill="white"/>
</g>
<path d="M50 -1.89276e-06L-2.15577e-06 50L2.98022e-08 -3.52492e-07L50 -1.89276e-06Z" fill="#D9D9D9"/>
<mask id="mask1_1801_8" style="mask-type:alpha" maskUnits="userSpaceOnUse" x="2" y="2" width="24" height="24">
<rect x="2" y="2" width="24" height="24" fill="#D9D9D9"/>
</mask>
<g mask="url(#mask1_1801_8)">
<path d="M21.5422 22.5769L15.2615 16.2961C14.7615 16.7089 14.1865 17.032 13.5365 17.2653C12.8865 17.4987 12.214 17.6153 11.5192 17.6153C9.80999 17.6153 8.36348 17.0236 7.17961 15.84C5.99574 14.6564 5.40381 13.2103 5.40381 11.5016C5.40381 9.79284 5.99559 8.34616 7.17916 7.16154C8.36273 5.97694 9.80888 5.38464 11.5176 5.38464C13.2263 5.38464 14.673 5.97658 15.8576 7.16044C17.0422 8.34431 17.6345 9.79083 17.6345 11.5C17.6345 12.2141 17.5147 12.8961 17.2749 13.5461C17.0352 14.1961 16.7153 14.7615 16.3153 15.2423L22.5961 21.5231L21.5422 22.5769ZM11.5192 16.1154C12.8076 16.1154 13.899 15.6683 14.7932 14.774C15.6874 13.8798 16.1346 12.7885 16.1346 11.5C16.1346 10.2115 15.6874 9.12018 14.7932 8.22594C13.899 7.33171 12.8076 6.88459 11.5192 6.88459C10.2307 6.88459 9.13934 7.33171 8.24511 8.22594C7.35089 9.12018 6.90378 10.2115 6.90378 11.5C6.90378 12.7885 7.35089 13.8798 8.24511 14.774C9.13934 15.6683 10.2307 16.1154 11.5192 16.1154ZM10.7692 14.1923V12.25H8.82688V10.75H10.7692V8.80772H12.2692V10.75H14.2115V12.25H12.2692V14.1923H10.7692Z" fill="white"/>
</g>
</svg>
